<svg xmlns="http://www.w3.org/2000/svg" viewBox="0 0 1600 1000" width="1600" height="1000" role="img" aria-label="An open-air gathering at golden hour with a crowd in silhouette" preserveAspectRatio="xMidYMid slice">
  <defs>
    <linearGradient id="bg" x1="0" y1="0" x2="0.35" y2="1">
      <stop offset="0" stop-color="#0B0A0C"/>
      <stop offset="0.55" stop-color="#1A1319"/>
      <stop offset="1" stop-color="#08070A"/>
    </linearGradient>
    <radialGradient id="key" cx="0.5" cy="0.62" r="0.78">
      <stop offset="0" stop-color="#F7A845" stop-opacity="0.52"/>
      <stop offset="0.35" stop-color="#F7A845" stop-opacity="0.17"/>
      <stop offset="1" stop-color="#F7A845" stop-opacity="0"/>
    </radialGradient>
    <radialGradient id="rim" cx="0.5" cy="0.12" r="0.6">
      <stop offset="0" stop-color="#CFE3FF" stop-opacity="0.2"/>
      <stop offset="1" stop-color="#CFE3FF" stop-opacity="0"/>
    </radialGradient>
    <linearGradient id="vig" x1="0" y1="0" x2="0" y2="1">
      <stop offset="0" stop-color="#000" stop-opacity="0.5"/>
      <stop offset="0.42" stop-color="#000" stop-opacity="0"/>
      <stop offset="1" stop-color="#000" stop-opacity="0.78"/>
    </linearGradient>
    <radialGradient id="corner" cx="0.5" cy="0.5" r="0.75">
      <stop offset="0.55" stop-color="#000" stop-opacity="0"/>
      <stop offset="1" stop-color="#000" stop-opacity="0.62"/>
    </radialGradient>
    <filter id="soft" x="-30%" y="-30%" width="160%" height="160%">
      <feGaussianBlur stdDeviation="30"/>
    </filter>
    <filter id="bokehBlur" x="-30%" y="-30%" width="160%" height="160%">
      <feGaussianBlur stdDeviation="7"/>
    </filter>
    <filter id="grain" x="0" y="0" width="100%" height="100%">
      <feTurbulence type="fractalNoise" baseFrequency="0.9" numOctaves="4" stitchTiles="stitch" result="n"/>
      <feColorMatrix in="n" type="saturate" values="0"/>
    </filter>
  </defs>

  <rect width="1600" height="1000" fill="url(#bg)"/>
  <g filter="url(#soft)" style="mix-blend-mode:screen"><rect x="-40" y="475.45" width="1680" height="50.27" fill="#F7A845" opacity="0.04"/><rect x="-40" y="271.13" width="1680" height="219.41" fill="#F7A845" opacity="0.08"/><rect x="-40" y="309.51" width="1680" height="176.9" fill="#F7A845" opacity="0.04"/><rect x="-40" y="702.96" width="1680" height="195.05" fill="#F7A845" opacity="0.07"/><rect x="-40" y="768.83" width="1680" height="205.34" fill="#F7A845" opacity="0.07"/><rect x="-40" y="745.89" width="1680" height="91.71" fill="#F7A845" opacity="0.05"/></g>
  <rect width="1600" height="1000" fill="url(#key)"/>
  <rect width="1600" height="1000" fill="url(#rim)"/>
  <g filter="url(#soft)" style="mix-blend-mode:screen"><polygon points="800,620 39.69,1625.96 -15.64,1581.64" fill="#F7A845" opacity="0.09"/><polygon points="800,620 111.1,1789.76 78.3,1769.81" fill="#F7A845" opacity="0.07"/><polygon points="800,620 211.68,2187.25 140.47,2158.64" fill="#F7A845" opacity="0.06"/><polygon points="800,620 315.61,2335.35 256.06,2317.41" fill="#F7A845" opacity="0.05"/><polygon points="800,620 670.29,2355.71 634.59,2352.67" fill="#F7A845" opacity="0.06"/><polygon points="800,620 786.05,2107.83 721.12,2105.8" fill="#F7A845" opacity="0.08"/><polygon points="800,620 955.06,2116.69 878.75,2122.63" fill="#F7A845" opacity="0.05"/><polygon points="800,620 1452.85,2276.62 1374.28,2305.47" fill="#F7A845" opacity="0.06"/><polygon points="800,620 1548.55,1914.38 1507.73,1937.15" fill="#F7A845" opacity="0.09"/><polygon points="800,620 1612.64,1678.13 1556.08,1719.26" fill="#F7A845" opacity="0.05"/><polygon points="800,620 1806.91,1616.43 1767.41,1654.82" fill="#F7A845" opacity="0.06"/></g>
  <g filter="url(#bokehBlur)" style="mix-blend-mode:screen"><circle cx="151.12" cy="609.17" r="45.43" fill="none" stroke="#F7A845" stroke-width="1.95" opacity="0.19"/><circle cx="151.12" cy="609.17" r="45.43" fill="#F7A845" opacity="0.08"/><circle cx="944.17" cy="633.33" r="54.24" fill="none" stroke="#F7A845" stroke-width="2.43" opacity="0.31"/><circle cx="944.17" cy="633.33" r="54.24" fill="#F7A845" opacity="0.12"/><circle cx="885.09" cy="327.8" r="35.8" fill="none" stroke="#F7A845" stroke-width="2.41" opacity="0.13"/><circle cx="885.09" cy="327.8" r="35.8" fill="#F7A845" opacity="0.05"/><circle cx="1097.79" cy="282.17" r="55.17" fill="none" stroke="#F7A845" stroke-width="2.58" opacity="0.16"/><circle cx="1097.79" cy="282.17" r="55.17" fill="#F7A845" opacity="0.06"/><circle cx="1430.43" cy="866.87" r="6.32" fill="none" stroke="#F7A845" stroke-width="3.07" opacity="0.07"/><circle cx="1430.43" cy="866.87" r="6.32" fill="#F7A845" opacity="0.03"/><circle cx="1177.31" cy="500.74" r="46.57" fill="none" stroke="#F7A845" stroke-width="1.15" opacity="0.3"/><circle cx="1177.31" cy="500.74" r="46.57" fill="#F7A845" opacity="0.12"/><circle cx="585.5" cy="743.39" r="11.04" fill="none" stroke="#F7A845" stroke-width="2.07" opacity="0.19"/><circle cx="585.5" cy="743.39" r="11.04" fill="#F7A845" opacity="0.08"/><circle cx="1354.28" cy="643.22" r="49.15" fill="none" stroke="#F7A845" stroke-width="2.33" opacity="0.33"/><circle cx="1354.28" cy="643.22" r="49.15" fill="#F7A845" opacity="0.13"/><circle cx="1284.79" cy="184.72" r="14.34" fill="none" stroke="#F7A845" stroke-width="1.55" opacity="0.23"/><circle cx="1284.79" cy="184.72" r="14.34" fill="#F7A845" opacity="0.09"/><circle cx="623.07" cy="837.17" r="15.22" fill="none" stroke="#F7A845" stroke-width="2.35" opacity="0.1"/><circle cx="623.07" cy="837.17" r="15.22" fill="#F7A845" opacity="0.04"/><circle cx="788.15" cy="923.09" r="40.33" fill="none" stroke="#F7A845" stroke-width="2.85" opacity="0.22"/><circle cx="788.15" cy="923.09" r="40.33" fill="#F7A845" opacity="0.09"/><circle cx="794.75" cy="552.54" r="27.49" fill="none" stroke="#F7A845" stroke-width="1.46" opacity="0.26"/><circle cx="794.75" cy="552.54" r="27.49" fill="#F7A845" opacity="0.1"/><circle cx="693.49" cy="170.26" r="45.72" fill="none" stroke="#F7A845" stroke-width="1.5" opacity="0.08"/><circle cx="693.49" cy="170.26" r="45.72" fill="#F7A845" opacity="0.03"/><circle cx="941.1" cy="910.28" r="59.92" fill="none" stroke="#F7A845" stroke-width="2.98" opacity="0.14"/><circle cx="941.1" cy="910.28" r="59.92" fill="#F7A845" opacity="0.06"/></g>
  <g fill="hsl(248 14% 2.5%)"><circle cx="-66.37" cy="764.48" r="6.75"/><path d="M-83.24 980 Q-81.55 774.6 -66.37 773.59 Q-51.18 774.6 -49.49 980 Z"/><circle cx="-29.47" cy="762.44" r="7.64"/><path d="M-48.56 980 Q-46.65 773.89 -29.47 772.75 Q-12.29 773.89 -10.38 980 Z"/><circle cx="10.97" cy="761.96" r="7.84"/><path d="M-8.64 980 Q-6.68 773.72 10.97 772.55 Q28.62 773.72 30.58 980 Z"/><circle cx="34.72" cy="759.89" r="8.74"/><path d="M12.85 980 Q15.04 773 34.72 771.69 Q54.39 773 56.58 980 Z"/><path d="M45.65 777.38 Q58.76 745.9 51.77 723.16 L60.95 724.91 Q65.76 754.64 63.14 780.87 Z"/><circle cx="64.22" cy="762.9" r="7.43"/><path d="M45.63 980 Q47.49 774.05 64.22 772.94 Q80.95 774.05 82.81 980 Z"/><circle cx="107.16" cy="762.49" r="7.61"/><path d="M88.13 980 Q90.03 773.91 107.16 772.77 Q124.28 773.91 126.19 980 Z"/><circle cx="126.24" cy="760.78" r="8.36"/><path d="M105.35 980 Q107.44 773.31 126.24 772.06 Q145.05 773.31 147.14 980 Z"/><circle cx="162.92" cy="760.46" r="8.5"/><path d="M141.68 980 Q143.8 773.2 162.92 771.93 Q182.04 773.2 184.17 980 Z"/><circle cx="201.68" cy="764.72" r="6.64"/><path d="M185.08 980 Q186.74 774.69 201.68 773.69 Q216.63 774.69 218.29 980 Z"/><circle cx="237.42" cy="764.74" r="6.64"/><path d="M220.83 980 Q222.49 774.69 237.42 773.7 Q252.35 774.69 254.01 980 Z"/><circle cx="269.29" cy="764.02" r="6.95"/><path d="M251.93 980 Q253.66 774.44 269.29 773.4 Q284.92 774.44 286.66 980 Z"/><circle cx="301.98" cy="759.75" r="8.8"/><path d="M279.97 980 Q282.17 772.96 301.98 771.64 Q321.79 772.96 323.99 980 Z"/><circle cx="332.15" cy="762.4" r="7.65"/><path d="M313.02 980 Q314.93 773.88 332.15 772.73 Q349.37 773.88 351.29 980 Z"/><circle cx="361.58" cy="759.69" r="8.83"/><path d="M339.5 980 Q341.71 772.93 361.58 771.61 Q381.45 772.93 383.66 980 Z"/><path d="M350.54 777.35 Q337.29 745.55 344.36 722.59 L335.08 724.35 Q330.22 754.39 332.87 780.88 Z"/><circle cx="388.38" cy="762.63" r="7.55"/><path d="M369.5 980 Q371.39 773.96 388.38 772.83 Q405.38 773.96 407.26 980 Z"/><circle cx="419.48" cy="764.89" r="6.57"/><path d="M403.06 980 Q404.7 774.74 419.48 773.76 Q434.27 774.74 435.91 980 Z"/><path d="M427.7 778.03 Q437.55 754.38 432.29 737.3 L439.19 738.61 Q442.81 760.95 440.84 780.66 Z"/><circle cx="461.74" cy="760.27" r="8.58"/><path d="M440.3 980 Q442.45 773.14 461.74 771.85 Q481.04 773.14 483.19 980 Z"/><circle cx="490.39" cy="763.93" r="6.99"/><path d="M472.92 980 Q474.66 774.41 490.39 773.36 Q506.11 774.41 507.86 980 Z"/><path d="M499.12 777.9 Q509.61 752.74 504.02 734.57 L511.35 735.97 Q515.2 759.73 513.1 780.7 Z"/><circle cx="513.07" cy="761.14" r="8.2"/><path d="M492.57 980 Q494.62 773.44 513.07 772.21 Q531.53 773.44 533.58 980 Z"/><path d="M502.82 777.54 Q490.52 748.01 497.08 726.69 L488.47 728.33 Q483.96 756.21 486.42 780.82 Z"/><circle cx="555.13" cy="760.92" r="8.3"/><path d="M534.39 980 Q536.47 773.36 555.13 772.12 Q573.8 773.36 575.87 980 Z"/><circle cx="584.26" cy="759.97" r="8.71"/><path d="M562.48 980 Q564.66 773.03 584.26 771.73 Q603.85 773.03 606.03 980 Z"/><circle cx="613.02" cy="760.69" r="8.4"/><path d="M592.03 980 Q594.13 773.28 613.02 772.02 Q631.91 773.28 634.01 980 Z"/><circle cx="646.08" cy="761.02" r="8.25"/><path d="M625.45 980 Q627.51 773.4 646.08 772.16 Q664.65 773.4 666.71 980 Z"/><circle cx="687.53" cy="764.02" r="6.95"/><path d="M670.16 980 Q671.9 774.44 687.53 773.4 Q703.16 774.44 704.9 980 Z"/><circle cx="713.87" cy="760.96" r="8.28"/><path d="M693.17 980 Q695.24 773.38 713.87 772.13 Q732.5 773.38 734.57 980 Z"/><circle cx="738.72" cy="763.17" r="7.32"/><path d="M720.42 980 Q722.25 774.14 738.72 773.05 Q755.19 774.14 757.02 980 Z"/><circle cx="784.91" cy="760.16" r="8.63"/><path d="M763.34 980 Q765.5 773.1 784.91 771.8 Q804.32 773.1 806.47 980 Z"/><path d="M795.69 777.41 Q808.63 746.36 801.73 723.93 L810.79 725.65 Q815.53 754.98 812.94 780.86 Z"/><circle cx="807.69" cy="765.04" r="6.5"/><path d="M791.43 980 Q793.05 774.8 807.69 773.82 Q822.32 774.8 823.95 980 Z"/><circle cx="850.08" cy="764.1" r="6.91"/><path d="M832.8 980 Q834.52 774.47 850.08 773.43 Q865.63 774.47 867.36 980 Z"/><circle cx="880.47" cy="764.94" r="6.55"/><path d="M864.09 980 Q865.73 774.76 880.47 773.78 Q895.2 774.76 896.84 980 Z"/><circle cx="900.85" cy="759.57" r="8.88"/><path d="M878.65 980 Q880.87 772.89 900.85 771.56 Q920.83 772.89 923.05 980 Z"/><circle cx="936.99" cy="759.62" r="8.86"/><path d="M914.85 980 Q917.06 772.91 936.99 771.58 Q956.93 772.91 959.14 980 Z"/><circle cx="968.09" cy="763.24" r="7.29"/><path d="M949.87 980 Q951.69 774.17 968.09 773.08 Q984.49 774.17 986.31 980 Z"/><path d="M977.2 777.81 Q988.13 751.58 982.3 732.63 L989.95 734.09 Q993.96 758.87 991.77 780.73 Z"/><circle cx="1004.07" cy="765.04" r="6.5"/><path d="M987.81 980 Q989.44 774.8 1004.07 773.82 Q1018.7 774.8 1020.33 980 Z"/><circle cx="1028.8" cy="763.44" r="7.2"/><path d="M1010.81 980 Q1012.61 774.24 1028.8 773.16 Q1045 774.24 1046.8 980 Z"/><path d="M1019.8 777.84 Q1009.01 751.93 1014.76 733.21 L1007.21 734.65 Q1003.25 759.13 1005.41 780.72 Z"/><circle cx="1064.91" cy="760.05" r="8.68"/><path d="M1043.22 980 Q1045.39 773.06 1064.91 771.76 Q1084.43 773.06 1086.6 980 Z"/><circle cx="1106.39" cy="765.23" r="6.42"/><path d="M1090.33 980 Q1091.94 774.86 1106.39 773.9 Q1120.83 774.86 1122.44 980 Z"/><circle cx="1130.01" cy="762.97" r="7.4"/><path d="M1111.51 980 Q1113.36 774.08 1130.01 772.97 Q1146.67 774.08 1148.52 980 Z"/><circle cx="1161.38" cy="762.33" r="7.68"/><path d="M1142.18 980 Q1144.1 773.86 1161.38 772.7 Q1178.66 773.86 1180.58 980 Z"/><circle cx="1195.14" cy="762.31" r="7.69"/><path d="M1175.91 980 Q1177.83 773.85 1195.14 772.69 Q1212.45 773.85 1214.37 980 Z"/><circle cx="1225.77" cy="759.99" r="8.7"/><path d="M1204.02 980 Q1206.19 773.04 1225.77 771.73 Q1245.35 773.04 1247.53 980 Z"/><circle cx="1259.47" cy="763.58" r="7.14"/><path d="M1241.63 980 Q1243.41 774.29 1259.47 773.22 Q1275.54 774.29 1277.32 980 Z"/><circle cx="1299.46" cy="762.53" r="7.6"/><path d="M1280.47 980 Q1282.37 773.92 1299.46 772.78 Q1316.56 773.92 1318.46 980 Z"/><circle cx="1325.68" cy="763.6" r="7.13"/><path d="M1307.85 980 Q1309.63 774.3 1325.68 773.23 Q1341.72 774.3 1343.5 980 Z"/><circle cx="1364.52" cy="763.48" r="7.18"/><path d="M1346.56 980 Q1348.36 774.25 1364.52 773.17 Q1380.69 774.25 1382.48 980 Z"/><path d="M1373.5 777.84 Q1384.28 751.98 1378.53 733.3 L1386.08 734.74 Q1390.03 759.16 1387.87 780.72 Z"/><circle cx="1395.93" cy="764.43" r="6.77"/><path d="M1379 980 Q1380.7 774.58 1395.93 773.57 Q1411.17 774.58 1412.86 980 Z"/><circle cx="1421.98" cy="760.2" r="8.61"/><path d="M1400.45 980 Q1402.61 773.11 1421.98 771.82 Q1441.35 773.11 1443.51 980 Z"/><circle cx="1453.37" cy="764.53" r="6.73"/><path d="M1436.56 980 Q1438.24 774.62 1453.37 773.61 Q1468.51 774.62 1470.19 980 Z"/><circle cx="1488.25" cy="760.27" r="8.58"/><path d="M1466.8 980 Q1468.95 773.14 1488.25 771.85 Q1507.55 773.14 1509.69 980 Z"/><circle cx="1527.12" cy="760.51" r="8.47"/><path d="M1505.94 980 Q1508.06 773.22 1527.12 771.95 Q1546.19 773.22 1548.3 980 Z"/><circle cx="1554.72" cy="764.08" r="6.92"/><path d="M1537.41 980 Q1539.14 774.46 1554.72 773.42 Q1570.29 774.46 1572.02 980 Z"/><circle cx="1587.47" cy="761.52" r="8.04"/><path d="M1567.38 980 Q1569.39 773.57 1587.47 772.37 Q1605.56 773.57 1607.56 980 Z"/><circle cx="1611.03" cy="764.8" r="6.61"/><path d="M1594.5 980 Q1596.16 774.71 1611.03 773.72 Q1625.9 774.71 1627.56 980 Z"/><circle cx="1650.62" cy="759.76" r="8.8"/><path d="M1628.62 980 Q1630.82 772.96 1650.62 771.64 Q1670.43 772.96 1672.63 980 Z"/></g><g fill="hsl(248 14% 5%)"><circle cx="-62.11" cy="814.84" r="13.11"/><path d="M-94.9 1045 Q-91.62 834.51 -62.11 832.54 Q-32.6 834.51 -29.32 1045 Z"/><circle cx="-10.4" cy="814.72" r="13.17"/><path d="M-43.31 1045 Q-40.02 834.47 -10.4 832.49 Q19.22 834.47 22.51 1045 Z"/><circle cx="43.9" cy="812.22" r="14.25"/><path d="M8.27 1045 Q11.84 833.6 43.9 831.46 Q75.97 833.6 79.54 1045 Z"/><circle cx="85.48" cy="815.43" r="12.86"/><path d="M53.34 1045 Q56.56 834.71 85.48 832.79 Q114.41 834.71 117.63 1045 Z"/><circle cx="143.79" cy="812.13" r="14.29"/><path d="M108.06 1045 Q111.63 833.57 143.79 831.42 Q175.95 833.57 179.52 1045 Z"/><circle cx="187.9" cy="812.94" r="13.94"/><path d="M153.05 1045 Q156.53 833.85 187.9 831.76 Q219.26 833.85 222.74 1045 Z"/><circle cx="237.57" cy="819.69" r="11"/><path d="M210.06 1045 Q212.81 836.2 237.57 834.55 Q262.33 836.2 265.08 1045 Z"/><circle cx="296.73" cy="820.41" r="10.69"/><path d="M270.01 1045 Q272.68 836.45 296.73 834.84 Q320.79 836.45 323.46 1045 Z"/><circle cx="362.23" cy="817.23" r="12.08"/><path d="M332.05 1045 Q335.06 835.34 362.23 833.53 Q389.4 835.34 392.42 1045 Z"/><path d="M347.14 841.38 Q329.03 797.91 338.69 766.51 L326.01 768.92 Q319.37 809.98 322.99 846.21 Z"/><circle cx="404.43" cy="815" r="13.04"/><path d="M371.82 1045 Q375.08 834.56 404.43 832.61 Q433.78 834.56 437.04 1045 Z"/><circle cx="451.82" cy="812.16" r="14.28"/><path d="M416.12 1045 Q419.69 833.58 451.82 831.44 Q483.94 833.58 487.51 1045 Z"/><circle cx="514.97" cy="813.48" r="13.71"/><path d="M480.71 1045 Q484.13 834.03 514.97 831.98 Q545.81 834.03 549.24 1045 Z"/><circle cx="568.88" cy="816.36" r="12.45"/><path d="M537.74 1045 Q540.86 835.04 568.88 833.17 Q596.9 835.04 600.02 1045 Z"/><path d="M584.45 841.26 Q603.13 796.43 593.17 764.05 L606.24 766.54 Q613.09 808.88 609.36 846.25 Z"/><circle cx="621.56" cy="817.3" r="12.04"/><path d="M591.45 1045 Q594.46 835.36 621.56 833.56 Q648.66 835.36 651.68 1045 Z"/><circle cx="656.23" cy="818.52" r="11.51"/><path d="M627.45 1045 Q630.33 835.79 656.23 834.06 Q682.13 835.79 685.01 1045 Z"/><circle cx="721.42" cy="817.45" r="11.98"/><path d="M691.48 1045 Q694.47 835.42 721.42 833.62 Q748.37 835.42 751.36 1045 Z"/><circle cx="759.59" cy="816.04" r="12.59"/><path d="M728.11 1045 Q731.26 834.93 759.59 833.04 Q787.92 834.93 791.07 1045 Z"/><circle cx="820.92" cy="817.96" r="11.75"/><path d="M791.54 1045 Q794.48 835.6 820.92 833.83 Q847.37 835.6 850.31 1045 Z"/><path d="M835.62 841.47 Q853.25 799.16 843.84 768.59 L856.19 770.95 Q862.65 810.91 859.13 846.18 Z"/><circle cx="865.49" cy="818.76" r="11.41"/><path d="M836.98 1045 Q839.83 835.87 865.49 834.16 Q891.16 835.87 894.01 1045 Z"/><path d="M851.23 841.58 Q834.12 800.51 843.25 770.85 L831.27 773.13 Q825 811.92 828.42 846.14 Z"/><circle cx="917.05" cy="820.14" r="10.81"/><path d="M890.02 1045 Q892.73 836.35 917.05 834.73 Q941.37 836.35 944.07 1045 Z"/><circle cx="970.59" cy="818.98" r="11.31"/><path d="M942.32 1045 Q945.14 835.95 970.59 834.25 Q996.04 835.95 998.87 1045 Z"/><path d="M984.73 841.61 Q1001.7 800.89 992.65 771.48 L1004.53 773.74 Q1010.75 812.2 1007.35 846.13 Z"/><circle cx="1031.86" cy="813.06" r="13.89"/><path d="M997.14 1045 Q1000.61 833.89 1031.86 831.81 Q1063.11 833.89 1066.59 1045 Z"/><circle cx="1091.09" cy="812.08" r="14.31"/><path d="M1055.3 1045 Q1058.88 833.55 1091.09 831.4 Q1123.29 833.55 1126.87 1045 Z"/><circle cx="1123.2" cy="815.52" r="12.82"/><path d="M1091.15 1045 Q1094.35 834.74 1123.2 832.82 Q1152.04 834.74 1155.25 1045 Z"/><circle cx="1194.03" cy="816.57" r="12.36"/><path d="M1163.13 1045 Q1166.22 835.11 1194.03 833.26 Q1221.84 835.11 1224.93 1045 Z"/><path d="M1209.48 841.29 Q1228.02 796.79 1218.13 764.66 L1231.11 767.13 Q1237.91 809.15 1234.2 846.24 Z"/><circle cx="1226.75" cy="820.08" r="10.83"/><path d="M1199.66 1045 Q1202.37 836.33 1226.75 834.71 Q1251.12 836.33 1253.83 1045 Z"/><circle cx="1273.34" cy="812.48" r="14.14"/><path d="M1237.99 1045 Q1241.52 833.69 1273.34 831.57 Q1305.15 833.69 1308.69 1045 Z"/><path d="M1255.66 840.76 Q1234.45 789.85 1245.76 753.09 L1230.92 755.91 Q1223.14 803.99 1227.38 846.41 Z"/><circle cx="1347.81" cy="814.78" r="13.14"/><path d="M1314.97 1045 Q1318.25 834.49 1347.81 832.52 Q1377.38 834.49 1380.66 1045 Z"/><path d="M1331.39 841.06 Q1311.68 793.76 1322.19 759.6 L1308.4 762.23 Q1301.17 806.9 1305.11 846.31 Z"/><circle cx="1395.12" cy="818.77" r="11.4"/><path d="M1366.61 1045 Q1369.46 835.88 1395.12 834.17 Q1420.78 835.88 1423.63 1045 Z"/><circle cx="1429.86" cy="814.75" r="13.15"/><path d="M1396.98 1045 Q1400.27 834.48 1429.86 832.51 Q1459.45 834.48 1462.73 1045 Z"/><circle cx="1504.86" cy="820.5" r="10.65"/><path d="M1478.23 1045 Q1480.89 836.48 1504.86 834.88 Q1528.83 836.48 1531.49 1045 Z"/><circle cx="1554.32" cy="817.24" r="12.07"/><path d="M1524.14 1045 Q1527.16 835.34 1554.32 833.53 Q1581.48 835.34 1584.49 1045 Z"/><path d="M1539.23 841.38 Q1521.12 797.92 1530.78 766.54 L1518.1 768.95 Q1511.46 809.99 1515.08 846.21 Z"/><circle cx="1585.85" cy="819.27" r="11.19"/><path d="M1557.89 1045 Q1560.69 836.05 1585.85 834.37 Q1611.02 836.05 1613.82 1045 Z"/><circle cx="1648.42" cy="813.9" r="13.52"/><path d="M1614.62 1045 Q1618 834.18 1648.42 832.16 Q1678.85 834.18 1682.23 1045 Z"/></g><g fill="hsl(248 14% 7.5%)"><circle cx="-57.01" cy="865.24" r="19.46"/><path d="M-105.66 1110 Q-100.8 894.43 -57.01 891.51 Q-13.23 894.43 -8.37 1110 Z"/><circle cx="3.02" cy="870.61" r="17.13"/><path d="M-39.8 1110 Q-35.52 896.3 3.02 893.73 Q41.56 896.3 45.84 1110 Z"/><circle cx="74.12" cy="866.6" r="18.87"/><path d="M26.95 1110 Q31.67 894.9 74.12 892.07 Q116.58 894.9 121.3 1110 Z"/><circle cx="168.85" cy="864.88" r="19.62"/><path d="M119.81 1110 Q124.72 894.31 168.85 891.36 Q212.99 894.31 217.9 1110 Z"/><path d="M193.38 904.11 Q222.8 833.49 207.11 782.49 L227.7 786.41 Q238.49 853.11 232.61 911.96 Z"/><circle cx="213.66" cy="876.85" r="14.41"/><path d="M177.63 1110 Q181.23 898.47 213.66 896.31 Q246.09 898.47 249.7 1110 Z"/><circle cx="300.8" cy="874.26" r="15.54"/><path d="M261.96 1110 Q265.84 897.57 300.8 895.24 Q335.77 897.57 339.65 1110 Z"/><circle cx="377.98" cy="876.38" r="14.62"/><path d="M341.44 1110 Q345.1 898.31 377.98 896.11 Q410.87 898.31 414.53 1110 Z"/><circle cx="430.05" cy="869.52" r="17.6"/><path d="M386.05 1110 Q390.45 895.92 430.05 893.28 Q469.65 895.92 474.05 1110 Z"/><circle cx="492.4" cy="870.34" r="17.24"/><path d="M449.29 1110 Q453.6 896.2 492.4 893.62 Q531.2 896.2 535.51 1110 Z"/><circle cx="571.89" cy="868.92" r="17.86"/><path d="M527.23 1110 Q531.7 895.71 571.89 893.03 Q612.08 895.71 616.54 1110 Z"/><circle cx="657.62" cy="868.89" r="17.87"/><path d="M612.94 1110 Q617.41 895.7 657.62 893.02 Q697.84 895.7 702.31 1110 Z"/><circle cx="715.5" cy="873.47" r="15.88"/><path d="M675.79 1110 Q679.76 897.29 715.5 894.91 Q751.23 897.29 755.2 1110 Z"/><circle cx="795.28" cy="876.84" r="14.42"/><path d="M759.24 1110 Q762.84 898.47 795.28 896.3 Q827.72 898.47 831.33 1110 Z"/><circle cx="868.88" cy="865.48" r="19.36"/><path d="M820.49 1110 Q825.32 894.52 868.88 891.61 Q912.43 894.52 917.27 1110 Z"/><circle cx="922.48" cy="869.63" r="17.55"/><path d="M878.59 1110 Q882.98 895.96 922.48 893.32 Q961.97 895.96 966.36 1110 Z"/><circle cx="998.28" cy="873.5" r="15.87"/><path d="M958.6 1110 Q962.57 897.3 998.28 894.92 Q1033.99 897.3 1037.96 1110 Z"/><circle cx="1063.13" cy="869.54" r="17.59"/><path d="M1019.15 1110 Q1023.55 895.93 1063.13 893.29 Q1102.71 895.93 1107.11 1110 Z"/><circle cx="1143.33" cy="874.59" r="15.39"/><path d="M1104.85 1110 Q1108.69 897.68 1143.33 895.38 Q1177.97 897.68 1181.82 1110 Z"/><circle cx="1207.55" cy="871.77" r="16.62"/><path d="M1166 1110 Q1170.15 896.7 1207.55 894.21 Q1244.95 896.7 1249.11 1110 Z"/><circle cx="1285.88" cy="877.26" r="14.24"/><path d="M1250.29 1110 Q1253.85 898.61 1285.88 896.48 Q1317.91 898.61 1321.47 1110 Z"/><circle cx="1367.72" cy="875.83" r="14.86"/><path d="M1330.57 1110 Q1334.29 898.11 1367.72 895.89 Q1401.15 898.11 1404.86 1110 Z"/><circle cx="1448.73" cy="875.6" r="14.96"/><path d="M1411.34 1110 Q1415.08 898.03 1448.73 895.79 Q1482.38 898.03 1486.12 1110 Z"/><circle cx="1514.41" cy="867.04" r="18.68"/><path d="M1467.72 1110 Q1472.39 895.06 1514.41 892.26 Q1556.44 895.06 1561.11 1110 Z"/><path d="M1537.76 904.4 Q1565.77 837.16 1550.83 788.6 L1570.44 792.34 Q1580.72 855.84 1575.11 911.87 Z"/><circle cx="1587.26" cy="869.68" r="17.53"/><path d="M1543.44 1110 Q1547.82 895.98 1587.26 893.35 Q1626.7 895.98 1631.09 1110 Z"/><circle cx="1637.91" cy="864.87" r="19.62"/><path d="M1588.86 1110 Q1593.77 894.3 1637.91 891.36 Q1682.06 894.3 1686.97 1110 Z"/></g>
  
  <rect width="1600" height="1000" fill="url(#vig)"/>
  <rect width="1600" height="1000" fill="url(#corner)"/>
  <rect width="1600" height="1000" filter="url(#grain)" opacity="0.09" style="mix-blend-mode:overlay"/>
</svg>